<svg width="36" height="36" viewBox="0 0 36 36" fill="none" xmlns="http://www.w3.org/2000/svg">
<path d="M18 28.5C23.799 28.5 28.5 23.799 28.5 18C28.5 12.201 23.799 7.5 18 7.5C12.201 7.5 7.5 12.201 7.5 18C7.5 23.799 12.201 28.5 18 28.5Z" stroke-linecap="round" stroke-linejoin="round"/>
<path d="M18 13.5V18L20.25 20.25" stroke-linecap="round" stroke-linejoin="round"/>
<path d="M24.765 26.025L24.24 31.77C24.1724 32.518 23.8267 33.2134 23.2713 33.7188C22.7158 34.2243 21.991 34.503 21.24 34.5H14.745C13.994 34.503 13.2692 34.2243 12.7137 33.7188C12.1583 33.2134 11.8126 32.518 11.745 31.77L11.22 26.025M11.235 9.97499L11.76 4.22999C11.8274 3.48461 12.1709 2.79132 12.7232 2.28622C13.2755 1.78113 13.9966 1.5007 14.745 1.49999H21.27C22.021 1.49695 22.7458 1.77569 23.3013 2.28115C23.8567 2.78662 24.2024 3.48203 24.27 4.22999L24.795 9.97499" stroke-linecap="round" stroke-linejoin="round"/>
</svg>
